<?xml version="1.0" encoding="UTF-8"?>
<svg xmlns="http://www.w3.org/2000/svg" viewBox="0 0 1280 1280">
  <defs>
    <style>
      .cls-1 {
        fill: #002e6d;
      }

      .cls-2 {
        fill: #fdfdfe;
      }
    </style>
  </defs>
  <g id="Capa_5" data-name="Capa 5">
    <g>
      <path class="cls-1" d="M698.75,40c-.35,1.89.96,1.21,2.16,1.25,114.36,3.82,224.93,12.28,338.05,30.1,58.41,9.2,113.47,11.6,145.52,68.85,10.9,19.47,13.32,39.29,17.2,60.93,22.46,125.39,32.05,248.34,37.07,375.46.05,1.2-.64,2.51,1.25,2.16v130.62c-1.89-.35-1.21.96-1.25,2.16-4.28,128.18-14.49,258.11-38.32,384.21-5.8,30.71-14.18,53.17-37.92,74.58-25.12,22.65-47.78,26.26-79.89,31.98-123.13,21.92-245.07,31.52-369.83,36.45-1.2.05-2.51-.64-2.16,1.25h-141.88c.35-1.89-.96-1.21-2.16-1.25-124.07-4.14-247.48-14.75-369.83-36.45-25.08-4.45-44.74-7.1-66.33-21.79-49.5-33.68-51.28-83.45-59.7-137.8-17.26-111.44-25.03-219.25-29.48-331.8-.05-1.2.64-2.51-1.25-2.16v-128.75c1.89.35,1.2-.96,1.25-2.16,4.91-124.26,14.08-243.42,35.2-366.08,7.06-41.03,10.42-72.47,43.22-101.78,25.82-23.07,49.9-26.46,82.71-32.29,125.08-22.22,249.18-32.21,376.08-36.45,1.2-.04,2.51.64,2.16-1.25h118.12ZM783.12,518.75l93.66-23.52c-.78-120.35-95.93-222.91-215.85-232.72-202.12-16.55-331.86,211.37-211.18,375.55,104.55,142.23,324.98,122.9,402.66-35.33,1.58-3.21,4.77-9.32,5.7-12.42.26-.87-.06-1.11-.92-.92l-155.33,75.92c-10.26,2.6-22.24,11.01-32.79,10.31-5.23-.35-11.21-2.31-16.28-3.72l-197.23-128.42c-1.12-1.48,1.26-7.96,2.08-9.88,2.63-6.17,9.37-14.22,16.89-12.82,6.74,1.26,16.17,6.69,23.56,8.33.85.19,1.65.4,2.53.28v-43.75l-37.36-16.54,9.32-30.25,40.17,4.18c2.2-3.57,15.05-23.11,14.65-25.69-2.1-5.03-23.1-29.78-23.02-32.66.06-1.96,19.38-17.66,21.53-20.96l1.26-.57c11.5,6.82,21.71,16.24,33.19,23.11l1.53-.26,23.75-13.93-4.4-40.81,31.48-6.93,16.1,36.84,29.5.11,17.03-36.83,30.24,8.7-3.76,39.7c.26,2.45,4,3.85,6.1,5.15,6.17,3.81,12.74,7.21,19.14,10.62l33.17-23.57,20.29,21.61.66,1.79c-5.68,10.42-15.18,19.79-21.35,29.86-.8,1.3-2.18,2.53-1.49,4.21l13.91,23.77,40.75-3.69,6.99,29.63-.66,1.85-36.25,16.24v28.44ZM626.9,556.9l104.35-27.84c15.97-50.12-15.74-104.82-66.61-117.14-83.49-20.23-148.5,72.02-100.09,142.59l46.91,18.09c6.24,5.76,9.04,12.31,15.41,18.34,15.52,14.69,27.33,14.29,47.52,10,12.89-2.74,25.45-7.22,37.86-11.55l-2.25-13.77-47.97,11.72c-19.17,1.92-25.39-5.12-32.14-21.29-.57-1.37-3.79-8.23-2.99-9.15ZM361.25,848.75h-38.12v9.06c0,.95-2.14,7.13-2.66,8.59-8.2,22.99-30.59,29.23-40.01,3.45-4.32-11.82-3.9-39.54-2.98-52.7s10.82-38.91,28.65-32.34c12.15,4.47,15.61,25.11,15.75,36.44l40.01.62c-3.94-28.33-25.41-51.58-54.7-53.74-93.5-6.91-93.43,129.3-11.86,134.99,14.25.99,29.12-1.56,41.13-9.48,14.67-9.68,23.12-27.69,24.8-44.88ZM491.25,900l-51.54-130.02-1.86-.64-37.86.34-1.1,1.4-46.09,127.04-.3,2.51h18.44l11.32-30.66,53.6.12,11.02,29.91h44.38ZM647.5,858.12l-62.81-88.75h-36.25c-.07,0-.94.87-.94.94v128.75c0,.07.87.94.94.94h15.94v-88.12l61.88,88.12h38.12v-129.69c0-.07-.87-.94-.94-.94h-15c-.07,0-.94.87-.94.94v87.81ZM779.38,786.88v-16.56c0-.07-.87-.94-.94-.94h-108.12c-.07,0-.94.87-.94.94v16.56h36.25v112.19c0,.07.87.94.94.94h37.81v-113.12h35ZM870.94,769.38h-84.38c-.07,0-.94.87-.94.94v128.75c0,.07.87.94.94.94h39.69v-53.75h20.94c.42,0,3.21,1.93,3.77,2.48,9.08,8.65,9.59,36.45,13.3,49.2.23.78.27,1.58,1.05,2.08h34.69c-.54-9.65-.81-19.45-1.88-29.06-1.5-13.53-3.6-24.36-15.62-32.51l6.24-5c11.08-13.42,13.01-37.33,1.87-51.23-3.93-4.9-13.43-11.94-19.67-12.83ZM906.25,900h18.44l11-30.56,53.4-.11,11.54,30.67h44.38l-52.79-130.67-36.93.02-2.2.93-46.83,129.73ZM531.88,770h-38.12v130h38.12v-130ZM618.62,922.68c-33.16,3.41-44.73,36.37-37.05,65.44,10.12,38.34,69.18,41.06,83.73,4.99,3.97-9.85,4-30.4,1.26-40.61-5.59-20.81-27.27-31.95-47.94-29.82ZM904.25,922.68c-32.24,3.31-41.16,30.32-38.61,58.87,4.33,48.58,82.5,49.28,87.94,1.09,3.81-33.74-11.29-63.87-49.33-59.96ZM749.38,923.12h-29.69c-.07,0-.94.87-.94.94v93.44h65.62v-18.12h-35v-76.25ZM311.25,986.88l-2.13-1.93-43.18-61.2h-26.56v93.12h11.88v-62.5c15.18,20.73,30.21,41.72,44.38,63.12h27.5v-93.75h-11.88v63.12ZM362.5,923.75h-30.62v71.56c0,11.67,18.74,22.09,29.04,22.84,7.84.57,27.2.9,33.89-1.79,6.42-2.58,18.32-13.92,18.32-21.05v-71.56h-15v70.31c0,3.36-6.07,9.27-9.67,9.7-2.99.36-13.37.41-16.12-.16-2.28-.47-9.83-5.2-9.83-7.67v-72.19ZM491.88,923.75h-71.88v93.75h73.12v-20h-41.88v-18.75h30v-16.25h-30v-21.25h40.62v-17.5ZM524.69,923.75h-29.69l35.74,92.7.49.76c.79.54,17.06.58,19.12.32.69-.08,1.39.04,1.85-.65l33.43-93.13h-12.81l-22.51,62.5-25.62-62.5ZM863.75,923.75h-73.12v93.75h74.38v-18.12h-43.12v-21.88h31.25v-15.62h-30.31c-.07,0-.94-.87-.94-.94v-20c0-.07.87-.94.94-.94h40.94v-16.25ZM1028.75,986.88l-45.31-63.12h-25.94v93.75h11.88v-63.12l44.69,63.12h26.56v-93.75h-11.88v63.12Z"/>
      <path class="cls-1" d="M826.25,830v-42.5h23.44c.81,0,4.39,2.18,5.26,2.87,8.78,6.99,9.44,28.08,1.64,35.91-.95.96-5.19,3.72-6.28,3.72h-24.06Z"/>
      <polygon class="cls-1" points="427.5 848.75 392.5 848.75 410.01 800.63 427.5 848.75"/>
      <polygon class="cls-1" points="981.25 848.75 946.25 848.75 964.06 799.99 981.25 848.75"/>
      <path class="cls-1" d="M621.71,934.53c13.33-2.14,18.72,9.38,19.56,20.76.59,8.06.99,32.74-1.09,39.59-5.6,18.49-31.01,14.62-32.71-5.17-.72-8.42-1.06-30.7.17-38.62,1.07-6.89,6.75-15.39,14.06-16.56Z"/>
      <path class="cls-1" d="M906.71,934.52c8.44-1.43,14.22,2.03,17.52,9.68,3.54,8.2,3.91,41.4,1.57,50.04-4.36,16.05-24.99,16.75-31.1,2.63-3.2-7.39-2.92-32.77-2.22-41.57.64-8.03,5.36-19.26,14.23-20.77Z"/>
    </g>
  </g>
  <g id="Capa_6" data-name="Capa 6">
    <path class="cls-2" d="M749.38,923.12v76.25h35v18.12h-65.62v-93.44c0-.07.87-.94.94-.94h29.69Z"/>
    <path class="cls-2" d="M783.12,518.75v-28.44l36.25-16.24.66-1.85-6.99-29.63-40.75,3.69-13.91-23.77c-.69-1.68.69-2.91,1.49-4.21,6.17-10.07,15.67-19.44,21.35-29.86l-.66-1.79-20.29-21.61-33.17,23.57c-6.4-3.4-12.97-6.81-19.14-10.62-2.1-1.29-5.84-2.7-6.1-5.15l3.76-39.7-30.24-8.7-17.03,36.83-29.5-.11-16.1-36.84-31.48,6.93,4.4,40.81-23.75,13.93-1.53.26c-11.47-6.87-21.69-16.3-33.19-23.11l-1.26.57c-2.15,3.31-21.47,19.01-21.53,20.96-.08,2.87,20.92,27.62,23.02,32.66.4,2.58-12.45,22.12-14.65,25.69l-40.17-4.18-9.32,30.25,37.36,16.54v43.75c-.88.11-1.68-.1-2.53-.28-7.38-1.63-16.82-7.07-23.56-8.33-7.52-1.4-14.26,6.65-16.89,12.82-.82,1.92-3.2,8.4-2.08,9.88l197.23,128.42c5.06,1.41,11.04,3.37,16.28,3.72,10.55.7,22.53-7.71,32.79-10.31l155.33-75.92c.85-.2,1.18.05.92.92-.94,3.11-4.13,9.21-5.7,12.42-77.67,158.23-298.11,177.57-402.66,35.33-120.68-164.18,9.06-392.1,211.18-375.55,119.92,9.82,215.07,112.37,215.85,232.72l-93.66,23.52Z"/>
    <path class="cls-2" d="M626.9,556.9c-.8.92,2.42,7.78,2.99,9.15,6.74,16.17,12.97,23.21,32.14,21.29l47.97-11.72,2.25,13.77c-12.41,4.33-24.97,8.81-37.86,11.55-20.19,4.29-32,4.69-47.52-10-6.37-6.03-9.17-12.58-15.41-18.34l-46.91-18.09c-48.4-70.57,16.61-162.82,100.09-142.59,50.86,12.32,82.58,67.02,66.61,117.14l-104.35,27.84Z"/>
    <path class="cls-2" d="M870.94,769.38c6.24.89,15.75,7.93,19.67,12.83,11.14,13.9,9.21,37.81-1.87,51.23l-6.24,5c12.02,8.15,14.12,18.98,15.62,32.51,1.06,9.6,1.34,19.41,1.88,29.06h-34.69c-.78-.5-.82-1.29-1.05-2.08-3.72-12.75-4.23-40.55-13.3-49.2-.57-.54-3.35-2.48-3.77-2.48h-20.94v53.75h-39.69c-.07,0-.94-.87-.94-.94v-128.75c0-.07.87-.94.94-.94h84.38ZM826.25,830h24.06c1.08,0,5.32-2.77,6.28-3.72,7.79-7.83,7.14-28.92-1.64-35.91-.87-.69-4.44-2.87-5.26-2.87h-23.44v42.5Z"/>
    <path class="cls-2" d="M647.5,858.12v-87.81c0-.07.87-.94.94-.94h15c.07,0,.94.87.94.94v129.69h-38.12l-61.88-88.12v88.12h-15.94c-.07,0-.94-.87-.94-.94v-128.75c0-.07.87-.94.94-.94h36.25l62.81,88.75Z"/>
    <path class="cls-2" d="M491.25,900h-44.38l-11.02-29.91-53.6-.12-11.32,30.66h-18.44l.3-2.51,46.09-127.04,1.1-1.4,37.86-.34,1.86.64,51.54,130.02ZM427.5,848.75l-17.49-48.12-17.51,48.12h35Z"/>
    <path class="cls-2" d="M361.25,848.75c-1.69,17.19-10.14,35.2-24.8,44.88-12,7.92-26.87,10.48-41.13,9.48-81.57-5.68-81.64-141.89,11.86-134.99,29.29,2.16,50.76,25.41,54.7,53.74l-40.01-.62c-.14-11.33-3.61-31.96-15.75-36.44-17.83-6.56-27.7,18.61-28.65,32.34s-1.33,40.88,2.98,52.7c9.42,25.78,31.81,19.54,40.01-3.45.52-1.46,2.66-7.64,2.66-8.59v-9.06h38.12Z"/>
    <path class="cls-2" d="M906.25,900l46.83-129.73,2.2-.93,36.93-.02,52.79,130.67h-44.38l-11.54-30.67-53.4.11-11,30.56h-18.44ZM981.25,848.75l-17.19-48.76-17.81,48.76h35Z"/>
    <path class="cls-2" d="M779.38,786.88h-35v113.12h-37.81c-.07,0-.94-.87-.94-.94v-112.19h-36.25v-16.56c0-.07.87-.94.94-.94h108.12c.07,0,.94.87.94.94v16.56Z"/>
    <path class="cls-2" d="M311.25,986.88v-63.12h11.88v93.75h-27.5c-14.16-21.4-29.2-42.39-44.38-63.12v62.5h-11.88v-93.12h26.56l43.18,61.2,2.13,1.93Z"/>
    <polygon class="cls-2" points="491.88 923.75 491.88 941.25 451.25 941.25 451.25 962.5 481.25 962.5 481.25 978.75 451.25 978.75 451.25 997.5 493.12 997.5 493.12 1017.5 420 1017.5 420 923.75 491.88 923.75"/>
    <rect class="cls-2" x="493.75" y="770" width="38.12" height="130"/>
    <polygon class="cls-2" points="1028.75 986.88 1028.75 923.75 1040.63 923.75 1040.63 1017.5 1014.06 1017.5 969.38 954.38 969.38 1017.5 957.5 1017.5 957.5 923.75 983.44 923.75 1028.75 986.88"/>
    <path class="cls-2" d="M863.75,923.75v16.25h-40.94c-.07,0-.94.87-.94.94v20c0,.07.87.94.94.94h30.31v15.62h-31.25v21.88h43.12v18.12h-74.38v-93.75h73.12Z"/>
    <path class="cls-2" d="M618.62,922.68c20.67-2.13,42.35,9.01,47.94,29.82,2.74,10.21,2.72,30.76-1.26,40.61-14.55,36.06-73.62,33.34-83.73-4.99-7.67-29.07,3.89-62.03,37.05-65.44ZM621.71,934.53c-7.32,1.17-12.99,9.68-14.06,16.56-1.23,7.92-.9,30.21-.17,38.62,1.7,19.79,27.11,23.66,32.71,5.17,2.07-6.85,1.68-31.53,1.09-39.59-.84-11.38-6.23-22.9-19.56-20.76Z"/>
    <path class="cls-2" d="M904.25,922.68c38.04-3.91,53.14,26.22,49.33,59.96-5.44,48.19-83.61,47.49-87.94-1.09-2.54-28.55,6.37-55.55,38.61-58.87ZM906.71,934.52c-8.87,1.5-13.6,12.74-14.23,20.77-.7,8.8-.98,34.18,2.22,41.57,6.11,14.12,26.74,13.42,31.1-2.63,2.34-8.63,1.97-41.84-1.57-50.04-3.3-7.65-9.09-11.11-17.52-9.68Z"/>
    <path class="cls-2" d="M362.5,923.75v72.19c0,2.47,7.55,7.2,9.83,7.67,2.76.57,13.14.51,16.12.16,3.6-.43,9.67-6.34,9.67-9.7v-70.31h15v71.56c0,7.13-11.91,18.47-18.32,21.05-6.69,2.69-26.05,2.36-33.89,1.79-10.3-.75-29.04-11.17-29.04-22.84v-71.56h30.62Z"/>
    <path class="cls-2" d="M524.69,923.75l25.62,62.5,22.51-62.5h12.81l-33.43,93.13c-.46.69-1.16.57-1.85.65-2.06.25-18.33.21-19.12-.32l-.49-.76-35.74-92.7h29.69Z"/>
  </g>
</svg>