<svg xmlns="http://www.w3.org/2000/svg" xmlns:xlink="http://www.w3.org/1999/xlink" width="940" zoomAndPan="magnify" viewBox="0 0 705 591.000005" height="788" preserveAspectRatio="xMidYMid meet" version="1.0"><defs><clipPath id="7a3914f556"><path d="M 8.835938 460 L 89 460 L 89 547 L 8.835938 547 Z M 8.835938 460 " clip-rule="nonzero"/></clipPath><clipPath id="60aa45e48a"><path d="M 644 479 L 696.171875 479 L 696.171875 548 L 644 548 Z M 644 479 " clip-rule="nonzero"/></clipPath></defs><path fill="#0e4090" d="M 294.484375 449.472656 L 294.484375 546.125 L 284.179688 546.125 L 282.992188 539.386719 C 281.4375 539.21875 280.726562 540.894531 279.609375 541.75 C 266.289062 552.027344 247.667969 547.96875 239.996094 533.058594 C 232.742188 518.957031 234.511719 494.40625 248.949219 485.347656 C 258.863281 479.128906 273.046875 479.730469 282.195312 487.097656 L 282.195312 449.46875 L 294.480469 449.46875 Z M 266.6875 490.371094 C 241.371094 491.125 243.316406 535.75 263.394531 537.800781 C 270.78125 538.558594 278.988281 535.5 282.222656 528.515625 L 282.128906 497.683594 C 278.5625 493.011719 272.585938 490.195312 266.6875 490.371094 Z M 266.6875 490.371094 " fill-opacity="1" fill-rule="nonzero"/><g clip-path="url(#7a3914f556)"><path fill="#0e4090" d="M 88.46875 546.125 L 75.59375 546.125 L 65.894531 522.550781 L 31.011719 522.550781 C 31.011719 522.550781 21.902344 546.125 21.902344 546.125 L 8.835938 546.125 L 42.941406 460.796875 C 43.136719 460.363281 43.453125 460.25 43.894531 460.171875 C 44.914062 459.984375 53.96875 460.058594 54.410156 460.351562 L 88.464844 546.125 Z M 62.320312 512.457031 L 48.847656 475.21875 L 34.589844 512.457031 Z M 62.320312 512.457031 " fill-opacity="1" fill-rule="nonzero"/></g><path fill="#0e4090" d="M 219.609375 546.125 L 209.707031 546.125 C 209.308594 545.171875 208.667969 539.386719 207.921875 539.398438 C 200.949219 546.808594 188.527344 549.339844 178.988281 546.140625 C 162.601562 540.644531 161.902344 519.3125 177.210938 511.851562 C 179.546875 510.710938 186.496094 508.496094 188.90625 508.496094 L 207.328125 508.496094 L 207.328125 499.183594 C 207.328125 497.78125 205.332031 494.5625 204.136719 493.664062 C 198.949219 489.773438 190.152344 491.019531 184.371094 492.863281 C 181.9375 493.636719 178.332031 495.996094 176.449219 496.449219 C 175.984375 496.5625 175.902344 496.335938 175.636719 496.035156 C 175.25 495.597656 171.945312 489.371094 171.765625 488.785156 C 171.65625 488.417969 171.527344 487.855469 171.71875 487.542969 C 171.941406 487.195312 178.277344 484.492188 179.207031 484.136719 C 190.800781 479.710938 210.425781 478.511719 217.164062 491.328125 C 217.851562 492.632812 219.609375 497.53125 219.609375 498.789062 Z M 207.71875 516.8125 C 197.242188 516.699219 176.605469 515.515625 179.285156 531.574219 C 180.71875 540.144531 193.765625 539.050781 199.667969 536.296875 C 201.011719 535.667969 207.714844 530.617188 207.714844 529.6875 L 207.714844 516.8125 Z M 207.71875 516.8125 " fill-opacity="1" fill-rule="nonzero"/><path fill="#0e4090" d="M 339.171875 481.28125 C 357.609375 479.492188 372.714844 490.121094 374.113281 509.09375 C 375.792969 531.859375 362.613281 549.273438 338.664062 547.304688 C 301.957031 544.292969 302.390625 484.847656 339.171875 481.273438 Z M 339.15625 490.769531 C 318.371094 493.417969 319.429688 534.511719 339.234375 537.628906 C 350.871094 539.457031 358.933594 533.453125 360.9375 522.054688 C 363.683594 506.441406 358.296875 488.332031 339.15625 490.769531 Z M 339.15625 490.769531 " fill-opacity="1" fill-rule="nonzero"/><path fill="#0e4090" d="M 429.945312 484.769531 L 427.605469 494.234375 C 425.421875 493.523438 423.394531 492.386719 421.171875 491.757812 C 415.433594 490.144531 402.804688 488.902344 399.792969 495.539062 C 394.816406 506.503906 413.609375 508.472656 420.222656 511.328125 C 430.183594 515.621094 435.507812 523.050781 432.078125 534.15625 C 426.886719 550.972656 399.617188 549.023438 386.808594 543.335938 L 389.578125 533.847656 C 396.707031 537.175781 412.164062 540.5625 418.585938 535.042969 C 421.847656 532.238281 421.847656 525.5 418.226562 522.828125 C 408.921875 515.949219 388.75 517.742188 387.242188 501.121094 C 385.257812 479.214844 415.816406 478.113281 429.945312 484.769531 Z M 429.945312 484.769531 " fill-opacity="1" fill-rule="nonzero"/><path fill="#0e4090" d="M 101.148438 449.472656 L 112.636719 449.472656 L 112.636719 546.125 L 101.148438 546.125 Z M 101.148438 449.472656 " fill-opacity="1" fill-rule="nonzero"/><path fill="#0e4090" d="M 136.410156 482.351562 L 148.292969 482.351562 L 148.292969 546.125 L 136.410156 546.125 Z M 136.410156 482.351562 " fill-opacity="1" fill-rule="nonzero"/><path fill="#0e4090" d="M 141.871094 450.742188 C 144.625 450.527344 147.570312 452.199219 149.023438 454.488281 C 153.527344 461.578125 144.527344 469.015625 137.863281 464.460938 C 132.050781 460.488281 134.914062 451.289062 141.871094 450.742188 Z M 141.871094 450.742188 " fill-opacity="1" fill-rule="nonzero"/><path fill="#c1110e" d="M 469.996094 515.621094 L 469.996094 546.121094 L 449 546.121094 L 449 460.757812 C 449 460.324219 449.964844 460.1875 450.367188 460.144531 C 461.335938 458.855469 475.226562 460.90625 486.433594 460.566406 C 505.769531 461.953125 519.503906 477.257812 512.496094 496.910156 C 506.386719 514.050781 485.847656 516.753906 469.996094 515.617188 Z M 469.996094 499.777344 L 481.285156 499.777344 C 483.160156 499.777344 487.515625 497.695312 489.015625 496.414062 C 493.414062 492.65625 494.09375 484.46875 490.203125 480.167969 C 488.683594 478.5 483.429688 476.011719 481.292969 476.011719 L 470 476.011719 L 470 499.777344 Z M 469.996094 499.777344 " fill-opacity="1" fill-rule="nonzero"/><path fill="#c1110e" d="M 549.234375 546.125 L 529.027344 546.125 L 529.027344 449.277344 C 529.027344 449.238281 529.582031 448.683594 529.621094 448.683594 L 548.636719 448.683594 C 548.675781 448.683594 549.230469 449.238281 549.230469 449.277344 L 549.230469 546.125 Z M 549.234375 546.125 " fill-opacity="1" fill-rule="nonzero"/><path fill="#c1110e" d="M 588.0625 480.765625 L 588.0625 523.746094 C 588.0625 524.167969 588.640625 526.75 588.828125 527.335938 C 591.070312 534.410156 601.347656 533.378906 606.253906 529.652344 C 606.710938 529.308594 609.457031 526.742188 609.457031 526.515625 L 609.457031 480.765625 L 629.664062 480.765625 L 629.664062 546.125 L 614.609375 546.125 L 613.023438 539.386719 C 612.472656 538.855469 607.675781 542.902344 606.652344 543.519531 C 591.992188 552.320312 567.859375 547.472656 567.859375 527.308594 L 567.859375 480.761719 L 588.066406 480.761719 Z M 588.0625 480.765625 " fill-opacity="1" fill-rule="nonzero"/><g clip-path="url(#60aa45e48a)"><path fill="#c1110e" d="M 688.691406 497.40625 C 682.550781 495.625 674.199219 492.039062 667.878906 494.621094 C 664.875 495.84375 663.800781 498.671875 665.933594 501.351562 C 668.367188 504.410156 681.128906 506.800781 685.546875 509.074219 C 694.546875 513.714844 698.316406 523.125 694.949219 532.769531 C 688.621094 550.875 659.347656 550.1875 645.125 542.941406 L 649.480469 528.304688 C 655.933594 531.328125 662.234375 533.300781 669.496094 532.679688 C 675.351562 532.175781 678.890625 526.953125 672.976562 523.621094 C 662.8125 517.902344 648.417969 520.554688 645.292969 504.957031 C 640.503906 481.070312 667.1875 476.394531 684.820312 480.886719 C 686.039062 481.195312 691.964844 482.984375 692.222656 483.8125 C 692.757812 485.523438 688.492188 494.828125 688.695312 497.414062 Z M 688.691406 497.40625 " fill-opacity="1" fill-rule="nonzero"/></g><path fill="#c1110e" d="M 491.386719 211.804688 C 490.703125 211.882812 490.054688 211.769531 489.390625 211.621094 C 482.691406 210.183594 474.71875 206.324219 467.707031 204.390625 C 444.648438 198.019531 421.925781 194.773438 398.613281 190.289062 C 389.738281 188.578125 381.058594 186.0625 372.222656 184.1875 C 364.964844 182.648438 350.144531 178.875 343.417969 178.890625 C 333.414062 178.917969 328.78125 189.480469 322.820312 195.960938 C 317.335938 201.917969 312.722656 202.996094 310.234375 211.5 C 306.667969 223.660156 307.152344 235.746094 292.316406 240.328125 C 285.429688 242.453125 278.675781 243.109375 276.847656 234.792969 C 272.507812 215.066406 278.273438 193.847656 285.078125 175.261719 C 292.03125 156.285156 300.1875 143.101562 321.027344 138.320312 C 341.863281 133.542969 366.242188 132.1875 388.15625 128.199219 C 389.332031 127.984375 390.011719 127.183594 391.34375 127.03125 C 394.464844 126.667969 396.164062 128.074219 398.476562 129.824219 C 411.449219 139.636719 424.953125 152.207031 437.519531 162.882812 C 453.800781 176.710938 472.257812 191.269531 487.4375 206.058594 C 489.058594 207.640625 491.292969 209.355469 491.394531 211.808594 Z M 491.386719 211.804688 " fill-opacity="1" fill-rule="nonzero"/><path fill="#c1110e" d="M 526.652344 42.273438 L 526.652344 218.144531 C 517.773438 216.539062 512.710938 208.441406 506.847656 202.492188 C 480.320312 179.460938 455.609375 154.199219 428.183594 132.203125 C 417.324219 123.496094 403.898438 115.039062 393.742188 106.035156 C 389.703125 102.449219 390.964844 101.160156 394.320312 97.917969 C 398.257812 94.109375 403.238281 90.539062 407.402344 86.835938 C 417.882812 77.535156 428.070312 67.84375 438.691406 58.703125 C 444.292969 53.878906 450.765625 49.371094 456.132812 44.457031 C 456.9375 43.71875 457.578125 42.273438 457.710938 42.273438 Z M 526.652344 42.273438 " fill-opacity="1" fill-rule="nonzero"/><path fill="#c1110e" d="M 258.433594 190.417969 C 257.707031 195.371094 256.652344 200.335938 256.109375 205.320312 C 254.054688 224.160156 252.554688 257.148438 276.265625 262.710938 C 288.566406 265.59375 308.003906 256.449219 315.648438 246.625 C 322.75 237.5 322.246094 231.867188 326.179688 222.292969 C 328.101562 217.617188 332.816406 213.816406 336.082031 210.007812 C 337.902344 207.886719 339.875 203.773438 342.339844 202.796875 C 347.292969 200.828125 358.574219 204.714844 364.148438 205.738281 C 391.152344 210.679688 419.050781 214.675781 445.761719 220.785156 C 457.644531 223.507812 484.65625 229.144531 491.957031 238.769531 C 498.496094 247.398438 493.851562 257 483.285156 257.351562 C 459.867188 251.441406 436.570312 241.816406 412.957031 236.945312 C 405.96875 235.507812 400.828125 233.816406 397.703125 241.90625 C 397.292969 242.980469 396.648438 244.410156 396.777344 245.558594 C 397.066406 248.085938 400.265625 251.835938 402.5 252.941406 L 477.15625 275.003906 C 478.652344 282.605469 468.675781 293.433594 461.480469 293.421875 C 458.644531 293.421875 450.652344 290.574219 447.421875 289.632812 C 432.203125 285.195312 416.949219 279.644531 401.46875 276.15625 C 398.160156 275.410156 391.066406 273.472656 388.09375 274.679688 C 385.898438 275.570312 383.179688 281.394531 383.226562 283.667969 C 383.277344 286.144531 385.296875 290.078125 387.457031 291.351562 L 446.832031 309.226562 C 453.050781 310.882812 451.554688 319.316406 448.703125 323.390625 C 444.984375 328.6875 440.035156 329.734375 433.953125 328.453125 C 421.578125 325.839844 406.488281 320.535156 393.941406 316.964844 C 389.066406 315.574219 383.371094 312.234375 378.402344 313.707031 C 372.894531 315.34375 370.230469 321.375 372.347656 326.664062 C 374.207031 331.320312 381.289062 332.644531 385.617188 333.992188 C 396.714844 337.453125 408.074219 340.210938 419.28125 343.320312 C 419.308594 343.726562 419.386719 344.257812 419.234375 344.628906 C 418.886719 345.492188 411.292969 348.6875 409.886719 349.148438 C 395.253906 353.988281 383 349.882812 368.722656 347.714844 C 361.285156 346.585938 353.714844 346.265625 346.261719 345.214844 C 327.867188 342.625 308.019531 338.96875 289.65625 335.65625 C 280.734375 334.050781 264.65625 330.394531 256.644531 326.675781 C 253.046875 325.003906 252.746094 321.894531 251.890625 318.359375 C 248.429688 304.144531 246.496094 289.484375 243.113281 275.238281 C 238.070312 253.964844 231.835938 232.878906 225.601562 211.945312 C 225.4375 210.359375 225.351562 208.695312 226.761719 207.644531 C 237.484375 202.195312 247.683594 195.714844 258.441406 190.402344 Z M 258.433594 190.417969 " fill-opacity="1" fill-rule="nonzero"/><path fill="#c1110e" d="M 178.003906 390.847656 L 178.003906 190.015625 C 182.519531 188.753906 191.574219 184.015625 195.636719 187.636719 C 196.796875 188.667969 197.527344 190.851562 198.109375 192.296875 C 216.816406 238.769531 226.503906 288.160156 237.230469 336.976562 C 238.785156 344.078125 242.605469 350.28125 236.457031 356.394531 C 224.566406 366.984375 209.199219 375.816406 197.628906 386.496094 C 196.925781 387.144531 193.953125 390.839844 193.65625 390.839844 L 178.011719 390.839844 Z M 178.003906 390.847656 " fill-opacity="1" fill-rule="nonzero"/><path fill="#1e1586" d="M 433.148438 42.273438 C 425.117188 49.609375 417.109375 57.015625 408.988281 64.261719 C 400.835938 71.539062 391.316406 78.882812 383.621094 86.429688 C 379.703125 90.273438 375.839844 96.226562 375.675781 101.878906 C 375.550781 106.175781 378.207031 109.835938 378.867188 113.960938 L 319.355469 122.398438 C 301.898438 126.007812 287.734375 135.816406 278.960938 151.328125 C 274.285156 159.597656 271.636719 168.953125 267.289062 177.308594 C 264.402344 176.722656 261.644531 175.460938 258.644531 175.339844 C 253.570312 175.144531 249.675781 177.328125 245.347656 179.503906 C 235.890625 184.269531 226.910156 190.039062 217.417969 194.757812 C 215.6875 194.722656 213.226562 187.152344 212.417969 185.507812 C 204.988281 170.359375 193.746094 168.125 178.003906 172.578125 L 178.003906 42.273438 Z M 433.148438 42.273438 " fill-opacity="1" fill-rule="nonzero"/><path fill="#1e1586" d="M 526.652344 390.847656 L 220.398438 390.847656 C 220.59375 389.773438 221.414062 388.207031 222.117188 387.417969 C 226.667969 382.339844 237.75 375.847656 243.554688 371.023438 C 248.140625 367.210938 255.257812 359.375 255.257812 353.019531 L 255.257812 342.917969 C 282.425781 348.871094 309.601562 355.21875 337.121094 359.503906 C 340.996094 360.105469 344.996094 360.214844 348.890625 360.804688 C 374.265625 364.6875 396.308594 371.640625 421.246094 360.925781 C 429.003906 357.589844 433.183594 353.351562 435.503906 345.074219 C 448.761719 345 461.664062 336.945312 465.4375 323.902344 C 466.933594 318.734375 466.414062 313.726562 466.199219 308.425781 C 477.273438 305.488281 486.679688 298.242188 490.601562 287.273438 C 492.351562 282.378906 492.808594 277.171875 493.164062 272.007812 C 507.707031 264.796875 514.730469 249.699219 507.445312 234.375 C 505.757812 230.832031 502.425781 227.75 502.484375 223.691406 C 506.046875 223.742188 507.707031 226.230469 510.359375 227.902344 C 512.753906 229.414062 515.3125 230.933594 518.078125 231.671875 C 519.375 232.019531 526.652344 232.871094 526.652344 234.1875 Z M 526.652344 390.847656 " fill-opacity="1" fill-rule="nonzero"/></svg>